<svg width="283" height="280" viewBox="0 0 283 280" fill="none" xmlns="http://www.w3.org/2000/svg">
<path d="M0 23.3333C0 17.1449 2.48467 11.21 6.9074 6.83418C11.3301 2.45833 17.3286 0 23.5833 0L70.75 0V23.3333H23.5833V70H0V23.3333ZM283 256.667C283 262.855 280.515 268.79 276.093 273.166C271.67 277.542 265.671 280 259.417 280H212.25V256.667H259.417V210H283V256.667ZM23.5833 280C17.3286 280 11.3301 277.542 6.9074 273.166C2.48467 268.79 0 262.855 0 256.667V210H23.5833V256.667H70.75V280H23.5833ZM259.417 0C265.671 0 271.67 2.45833 276.093 6.83418C280.515 11.21 283 17.1449 283 23.3333V70H259.417V23.3333H212.25V0H259.417Z" fill="#A0A0A0"/>
</svg>
