<svg width="54" height="44" viewBox="0 0 54 44" fill="none" xmlns="http://www.w3.org/2000/svg">
<path d="M20.2288 0.155151L0.266968 17.551L12.8477 43.6574L37.5781 20.9639L20.2288 0.155151ZM9.25866 21.1295L9.20793 20.9575L9.41719 20.671L9.63278 20.3972L8.92258 17.6719L8.75772 16.9397L8.70699 16.9843V17.7866L8.35822 21.9509L8.21238 22.0846L6.31005 19.8878L5.92958 19.3466L5.88519 19.3784L6.0881 20.1616L6.76661 22.9569L6.99489 22.8296C7.07276 22.7882 7.15325 22.7521 7.23584 22.7213L7.28023 22.906L6.0881 23.963L6.03737 23.7847C6.16532 23.5842 6.30955 23.3946 6.46857 23.218L5.58081 19.5312C5.4998 19.5841 5.41502 19.6309 5.32717 19.6713C5.25001 19.7141 5.16941 19.7503 5.08621 19.7796L5.04182 19.6013L6.18322 18.5889L7.83825 20.5755L8.18701 21.0403V20.2444L8.4787 16.564L9.49328 15.6726L9.53767 15.8509C9.42966 16.0344 9.30438 16.2071 9.16355 16.3666L10.1528 19.9579C10.2302 19.9044 10.3107 19.8555 10.3937 19.8114C10.4645 19.7725 10.5388 19.7406 10.6157 19.7159L10.6664 19.8878L9.25866 21.1295ZM11.4146 19.2192L11.3576 19.0473C11.4861 18.8492 11.6303 18.6618 11.7888 18.487L10.7552 14.9594L10.5079 15.0931C10.4263 15.1378 10.3416 15.1761 10.2542 15.2078L10.2098 15.0358L12.8224 12.7372C12.8731 12.89 12.9175 13.0492 12.9619 13.2147C13.0063 13.3803 13.0316 13.5586 13.057 13.7305L12.9111 13.8642L12.4799 13.4249L11.2815 14.4819L11.7571 16.0419L12.6638 15.2396L12.7526 14.6028L12.8921 14.4819C12.9619 14.6665 13.0253 14.8576 13.0887 15.0549C13.1521 15.2523 13.2092 15.4561 13.2599 15.6917L13.1204 15.8127L12.759 15.5643L11.8458 16.373L12.3404 18.0285L13.6404 16.8696L13.7038 15.9145L13.8496 15.7872C13.9258 15.9317 13.9936 16.0805 14.0525 16.2329C14.1238 16.3976 14.1811 16.568 14.2238 16.7423L11.4146 19.2192ZM18.2123 13.2657L15.0417 11.9604L14.6866 11.6993L14.8705 12.1195L15.7773 14.8575C15.856 14.8117 15.9388 14.7734 16.0246 14.7429C16.1068 14.7116 16.1917 14.6881 16.2783 14.6729L16.3353 14.8384L15.1305 15.9209L15.0671 15.7617C15.1767 15.534 15.313 15.3203 15.4729 15.125L14.3823 11.8203L14.1286 11.9158C14.0538 11.9432 13.9776 11.9666 13.9004 11.9858L13.8433 11.8267L14.7501 11.0244L17.4514 12.1769L17.8953 12.4188L17.7114 11.9413L16.8934 9.64898C16.7286 9.71977 16.5563 9.77107 16.3797 9.80182L16.3227 9.64263L17.4894 8.61746L17.5465 8.77665C17.5017 8.88981 17.4465 8.99854 17.3816 9.10139C17.3207 9.20353 17.2529 9.30138 17.1787 9.39429L18.485 13.0174L18.2123 13.2657ZM21.6048 10.2284C21.3984 10.4247 21.1631 10.5879 20.9073 10.7124C20.7262 10.8023 20.5258 10.846 20.3239 10.8397C20.1562 10.8257 19.9979 10.7563 19.8737 10.6423C19.7354 10.5112 19.6329 10.3468 19.5756 10.1647L18.7196 7.93615L18.4596 8.08896C18.3797 8.13071 18.2971 8.16688 18.2123 8.19721L18.1552 8.03802L19.5566 6.80274L19.62 6.96193C19.5125 7.1402 19.3894 7.30854 19.2522 7.46496L20.0893 9.65536C20.1463 9.8171 20.2371 9.96472 20.3556 10.0883C20.4456 10.1783 20.565 10.2326 20.6917 10.2411C20.8328 10.2442 20.9724 10.2113 21.0975 10.1456C21.2578 10.0581 21.4069 9.95117 21.5414 9.82727C21.8171 9.60714 22.0222 9.3104 22.1311 8.97404C22.2112 8.65215 22.1776 8.31232 22.036 8.01256L21.1546 5.854C20.9926 5.94343 20.82 6.01189 20.641 6.05775L20.5775 5.90494L21.757 4.86068L21.8204 5.01987C21.777 5.11912 21.7261 5.21491 21.6682 5.3064C21.6048 5.40191 21.535 5.49742 21.4653 5.58657L22.3657 7.74513C22.5547 8.1591 22.5841 8.62873 22.4482 9.06319C22.2733 9.51892 21.9825 9.92066 21.6048 10.2284ZM53.2152 43.4664H13.7989L15.4286 41.9701V42.0083L48.8716 42.0274L47.9077 41.0086H16.4812L17.7875 39.8051L46.7854 39.8497L45.8152 38.8309L18.9035 38.78L20.2034 37.5893L44.6928 37.6466L43.7226 36.6278L21.3131 36.5641L22.5813 35.3734L42.5685 35.4435L37.1088 29.7128L28.8146 29.6618L29.7468 28.8022L36.2908 28.8468L35.327 27.8344L30.8438 27.7962L32.112 26.6309H34.1919L33.2281 25.6121H33.1964L34.3821 24.5233L53.2152 43.4664Z" fill="#C9A960"/>
</svg>
