<?xml version="1.0" encoding="utf-8"?>
<!-- Generator: Adobe Illustrator 24.0.0, SVG Export Plug-In . SVG Version: 6.00 Build 0)  -->
<svg version="1.1" id="Camada_1" xmlns="http://www.w3.org/2000/svg" xmlns:xlink="http://www.w3.org/1999/xlink" x="0px" y="0px"
	 viewBox="0 0 500 500" style="enable-background:new 0 0 500 500;" xml:space="preserve">
<style type="text/css">
	.st0{fill:#293335;}
</style>
<g>
	<path class="st0" d="M220.5,254v145.5c0,5.5,3.9,10,8.7,10h41.3c4.8,0,8.7-4.5,8.7-10V254c-1.6,1.6-3.8,2.6-6.2,2.6h-46.2
		C224.4,256.6,222.2,255.6,220.5,254z"/>
	<path class="st0" d="M216.2,169.6v19.1h29.1v-29.1h-19.1C220.6,159.6,216.1,164.1,216.2,169.6z"/>
	<path class="st0" d="M283.7,169.7c0-5.6-4.5-10.1-10.1-10.1h-19v29.2h29.1V169.7z"/>
	<path class="st0" d="M216,200.1v19c0,5.6,4.5,10.1,10.1,10.1h19.1v-29.1h-29.1H216z"/>
	<path class="st0" d="M254.4,200.1v29.2h19.1c5.6,0,10.1-4.5,10.1-10.1v-19.1L254.4,200.1L254.4,200.1z"/>
	<path class="st0" d="M277.2,449C154,456.8,85.8,385.3,79,298.1c-1.2-16.6-0.1-32.8,3.3-48.4L47,277.2c-0.4,8-0.3,16,0.3,24
		c7,100.6,87.6,183.6,231.5,174.5c56.1-3.6,111.7-25.8,152-65.7l-23.1-16.7C373.2,426.9,325.4,446,277.2,449z"/>
	<path class="st0" d="M300.5,64.7l-7.9-6.3l-37.4-30l-1.7-1.3l-2.7,2.1l-2.7,2l-51.9,40.1l-10.9,8.4l-12.2,9.5V55.4
		c0-5.6-4.5-10.1-10.1-10.1h-45.7c-5.6,0-10.1,4.5-10.1,10.1v85l-41.7,30.9l-57,42.3l25.6,32.9L52,232.6l39.1-30.7l71.9-56.3
		l53.1-41.6l37.5-29.4l25.8,20.9l55,44.6l131.2,106.3l25.6-29.2L300.5,64.7z"/>
</g>
</svg>
