<?xml version="1.0" encoding="utf-8"?>
<!-- Generator: Adobe Illustrator 24.0.0, SVG Export Plug-In . SVG Version: 6.00 Build 0)  -->
<svg version="1.1" id="Camada_1" xmlns="http://www.w3.org/2000/svg" xmlns:xlink="http://www.w3.org/1999/xlink" x="0px" y="0px"
	 viewBox="0 0 500 500" style="enable-background:new 0 0 500 500;" xml:space="preserve">
<style type="text/css">
	.st0{fill:#293335;}
</style>
<path class="st0" d="M250.7,2.2C114,2.2,3.2,113,3.2,249.7S114,497.2,250.7,497.2s247.5-110.8,247.5-247.5S387.4,2.2,250.7,2.2z
	 M273.2,424c-112,7.1-174.7-57.5-180.2-135.8c-0.5-6.2-0.5-12.5-0.2-18.7l27.5-21.4c-2.6,12.1-3.5,24.8-2.6,37.7
	c5.3,67.9,58.4,123.5,154.3,117.5c37.5-2.3,74.7-17.2,101.6-43.4l18,13C360.1,403.9,316.9,421.2,273.2,424z M276.9,209.5v14.9
	c0,4.4-3.5,7.9-7.9,7.9h-14.9v-22.7H276.9z M254.4,200.7V178h14.8c4.4,0,7.9,3.5,7.9,7.9v14.9H254.4z M268.7,253.5
	c1.9,0,3.6-0.8,4.8-2v113.2c0,4.3-3,7.8-6.8,7.8h-32.1c-3.7,0-6.8-3.5-6.8-7.8V251.4c1.3,1.2,3,2,4.9,2H268.7z M247.1,200.6h-22.6
	v-14.9c-0.1-4.3,3.4-7.8,7.8-7.8h14.9V200.6z M247.1,209.5v22.6h-14.9c-4.4,0-7.9-3.5-7.9-7.9v-14.8h0.1H247.1z M418.6,245.5
	l-102.1-82.7l-42.8-34.7l-20.1-16.3l-29.2,22.9l-41.3,32.4l-56,43.8l-30.4,23.9l-13.9,10.8L62.8,220l44.4-32.9l32.5-24.1V96.9
	c0-4.4,3.5-7.9,7.9-7.9h35.6c4.4,0,7.9,3.5,7.9,7.9v26.3l9.5-7.4l8.5-6.5L249.3,78l2.1-1.6l2.1-1.6l1.3,1l29.1,23.3l6.1,4.9
	l148.4,118.7L418.6,245.5z"/>
</svg>
