<?xml version="1.0" standalone="no"?>
<!DOCTYPE svg PUBLIC "-//W3C//DTD SVG 20010904//EN"
 "http://www.w3.org/TR/2001/REC-SVG-20010904/DTD/svg10.dtd">
<svg version="1.0" xmlns="http://www.w3.org/2000/svg"
 width="567.000000pt" height="110.000000pt" viewBox="0 0 567.000000 110.000000"
 preserveAspectRatio="xMidYMid meet">

<g transform="translate(0.000000,110.000000) scale(0.100000,-0.100000)"
fill="#000000" stroke="none">
<path d="M2990 584 c0 -241 3 -363 10 -359 6 4 10 137 10 366 0 233 -4 359
-10 359 -6 0 -10 -129 -10 -366z"/>
<path d="M2920 590 c0 -213 4 -330 10 -330 6 0 10 117 10 330 0 213 -4 330
-10 330 -6 0 -10 -117 -10 -330z"/>
<path d="M2090 585 c0 -197 4 -305 10 -305 6 0 10 108 10 305 0 197 -4 305
-10 305 -6 0 -10 -108 -10 -305z"/>
<path d="M2160 591 c0 -187 4 -291 10 -291 6 0 10 101 10 284 0 179 -4 287
-10 291 -7 4 -10 -93 -10 -284z"/>
<path d="M3060 591 c0 -181 4 -281 10 -281 6 0 10 98 10 274 0 173 -4 277 -10
281 -7 4 -10 -90 -10 -274z"/>
<path d="M2020 590 c0 -173 4 -270 10 -270 6 0 10 97 10 270 0 173 -4 270 -10
270 -6 0 -10 -97 -10 -270z"/>
<path d="M3130 590 c0 -173 4 -270 10 -270 6 0 10 97 10 270 0 173 -4 270 -10
270 -6 0 -10 -97 -10 -270z"/>
<path d="M1400 590 c0 -167 4 -260 10 -260 6 0 10 93 10 260 0 167 -4 260 -10
260 -6 0 -10 -93 -10 -260z"/>
<path d="M2500 591 c0 -156 4 -252 10 -256 7 -4 10 78 10 239 0 135 0 249 1
253 0 4 -4 9 -10 11 -8 3 -11 -73 -11 -247z"/>
<path d="M1950 590 c0 -147 4 -230 10 -230 6 0 10 83 10 230 0 147 -4 230 -10
230 -6 0 -10 -83 -10 -230z"/>
<path d="M2230 584 c0 -154 3 -233 10 -229 14 8 14 465 0 465 -6 0 -10 -85
-10 -236z"/>
<path d="M2850 590 c0 -147 4 -230 10 -230 6 0 10 83 10 230 0 147 -4 230 -10
230 -6 0 -10 -83 -10 -230z"/>
<path d="M3200 584 c0 -154 3 -233 10 -229 6 4 10 93 10 236 0 146 -4 229 -10
229 -6 0 -10 -85 -10 -236z"/>
<path d="M1470 590 c0 -140 4 -220 10 -220 6 0 10 80 10 220 0 140 -4 220 -10
220 -6 0 -10 -80 -10 -220z"/>
<path d="M2437 803 c-11 -11 -8 -421 3 -428 7 -4 10 70 10 214 0 122 -1 221
-3 221 -2 0 -7 -3 -10 -7z"/>
<path d="M2577 803 c-11 -11 -8 -491 3 -498 7 -4 10 82 10 249 0 141 -1 256
-3 256 -2 0 -7 -3 -10 -7z"/>
<path d="M4510 591 c0 -141 4 -221 10 -221 6 0 10 78 10 214 0 133 -4 217 -10
221 -7 4 -10 -70 -10 -214z"/>
<path d="M2370 590 c0 -128 4 -209 9 -205 13 8 14 402 1 410 -7 4 -10 -63 -10
-205z"/>
<path d="M3337 793 c-11 -11 -8 -401 3 -408 7 -4 10 67 10 204 0 116 -1 211
-3 211 -2 0 -7 -3 -10 -7z"/>
<path d="M4720 590 c0 -133 4 -210 10 -210 6 0 10 77 10 210 0 133 -4 210 -10
210 -6 0 -10 -77 -10 -210z"/>
<path d="M2787 783 c-11 -11 -8 -393 3 -393 6 0 10 73 10 200 0 110 -1 200 -3
200 -2 0 -7 -3 -10 -7z"/>
<path d="M4440 590 c0 -127 4 -200 10 -200 6 0 10 73 10 200 0 127 -4 200 -10
200 -6 0 -10 -73 -10 -200z"/>
<path d="M4650 591 c0 -127 4 -201 10 -201 6 0 10 71 10 194 0 119 -4 197 -10
201 -7 4 -10 -63 -10 -194z"/>
<path d="M1540 590 c0 -120 4 -190 10 -190 6 0 10 70 10 190 0 120 -4 190 -10
190 -6 0 -10 -70 -10 -190z"/>
<path d="M2300 584 c0 -127 3 -193 10 -189 14 8 14 385 0 385 -6 0 -10 -72
-10 -196z"/>
<path d="M1880 590 c0 -113 4 -180 10 -180 6 0 10 67 10 180 0 113 -4 180 -10
180 -6 0 -10 -67 -10 -180z"/>
<path d="M4790 590 c0 -113 4 -180 10 -180 6 0 10 67 10 180 0 113 -4 180 -10
180 -6 0 -10 -67 -10 -180z"/>
<path d="M2640 590 c0 -107 4 -170 10 -170 6 0 10 63 10 170 0 107 -4 170 -10
170 -6 0 -10 -63 -10 -170z"/>
<path d="M3274 590 c0 -96 2 -136 3 -87 2 48 2 126 0 175 -1 48 -3 8 -3 -88z"/>
<path d="M4580 590 c0 -107 4 -170 10 -170 6 0 10 63 10 170 0 107 -4 170 -10
170 -6 0 -10 -63 -10 -170z"/>
<path d="M1330 590 c0 -100 4 -160 10 -160 6 0 10 60 10 160 0 100 -4 160 -10
160 -6 0 -10 -60 -10 -160z"/>
<path d="M4929 738 c-3 -46 1 -302 6 -306 3 -3 5 67 5 156 0 89 -2 162 -5 162
-3 0 -5 -6 -6 -12z"/>
<path d="M779 728 c-2 -46 3 -283 6 -287 3 -2 5 64 5 147 0 84 -2 152 -5 152
-3 0 -5 -6 -6 -12z"/>
<path d="M3400 591 c0 -89 4 -152 10 -156 7 -4 10 48 10 149 0 97 -4 156 -10
156 -6 0 -10 -56 -10 -149z"/>
<path d="M4860 590 c0 -98 4 -149 10 -145 6 4 10 63 10 145 0 82 -4 141 -10
145 -6 4 -10 -47 -10 -145z"/>
<path d="M847 713 c-11 -10 -8 -241 3 -248 6 -4 10 40 10 124 0 72 -1 131 -3
131 -2 0 -7 -3 -10 -7z"/>
<path d="M2710 591 c0 -76 4 -132 10 -136 6 -4 10 42 10 129 0 84 -4 136 -10
136 -6 0 -10 -50 -10 -129z"/>
<path d="M4997 713 c-11 -11 -8 -253 3 -253 6 0 10 50 10 130 0 72 -1 130 -3
130 -2 0 -7 -3 -10 -7z"/>
<path d="M640 591 c0 -74 4 -121 10 -121 6 0 10 45 10 114 0 66 -4 117 -10
121 -6 4 -10 -37 -10 -114z"/>
<path d="M1260 590 c0 -73 4 -120 10 -120 6 0 10 47 10 120 0 73 -4 120 -10
120 -6 0 -10 -47 -10 -120z"/>
<path d="M1810 591 c0 -69 4 -122 10 -126 6 -4 10 38 10 119 0 77 -4 126 -10
126 -6 0 -10 -46 -10 -119z"/>
<path d="M3470 590 c0 -73 4 -120 10 -120 6 0 10 47 10 120 0 73 -4 120 -10
120 -6 0 -10 -47 -10 -120z"/>
<path d="M3820 590 c0 -73 4 -120 10 -120 6 0 10 47 10 120 0 73 -4 120 -10
120 -6 0 -10 -47 -10 -120z"/>
<path d="M710 590 c0 -72 4 -109 10 -105 6 3 10 50 10 105 0 55 -4 102 -10
105 -6 4 -10 -33 -10 -105z"/>
<path d="M4370 590 c0 -67 4 -110 10 -110 6 0 10 43 10 110 0 67 -4 110 -10
110 -6 0 -10 -43 -10 -110z"/>
<path d="M910 591 c0 -56 4 -103 10 -106 6 -4 10 32 10 99 0 64 -4 106 -10
106 -6 0 -10 -40 -10 -99z"/>
<path d="M3750 590 c0 -60 4 -100 10 -100 6 0 10 40 10 100 0 60 -4 100 -10
100 -6 0 -10 -40 -10 -100z"/>
<path d="M1610 589 c0 -51 3 -89 7 -85 10 10 12 165 2 172 -5 3 -9 -34 -9 -87z"/>
<path d="M3540 591 c0 -50 5 -93 10 -96 6 -4 10 28 10 89 0 57 -4 96 -10 96
-6 0 -10 -36 -10 -89z"/>
<path d="M3890 590 c0 -53 4 -90 10 -90 6 0 10 37 10 90 0 53 -4 90 -10 90 -6
0 -10 -37 -10 -90z"/>
<path d="M5067 673 c-11 -10 -8 -161 3 -168 6 -4 10 27 10 84 0 91 -1 97 -13
84z"/>
<path d="M987 663 c-11 -10 -8 -141 3 -148 6 -4 10 23 10 74 0 81 -1 87 -13
74z"/>
<path d="M3680 590 c0 -47 4 -80 10 -80 6 0 10 33 10 80 0 47 -4 80 -10 80 -6
0 -10 -33 -10 -80z"/>
<path d="M5340 590 c0 -47 4 -80 10 -80 6 0 10 33 10 80 0 47 -4 80 -10 80 -6
0 -10 -33 -10 -80z"/>
<path d="M360 590 c0 -40 4 -70 10 -70 6 0 10 30 10 70 0 40 -4 70 -10 70 -6
0 -10 -30 -10 -70z"/>
<path d="M570 584 c0 -47 4 -73 10 -69 6 3 10 37 10 76 0 39 -4 69 -10 69 -6
0 -10 -32 -10 -76z"/>
<path d="M4300 590 c0 -40 4 -70 10 -70 6 0 10 30 10 70 0 40 -4 70 -10 70 -6
0 -10 -30 -10 -70z"/>
<path d="M1740 590 c0 -33 4 -60 10 -60 6 0 10 27 10 60 0 33 -4 60 -10 60 -6
0 -10 -27 -10 -60z"/>
<path d="M3610 591 c0 -33 5 -63 10 -66 6 -4 10 18 10 59 0 37 -4 66 -10 66
-6 0 -10 -26 -10 -59z"/>
<path d="M3960 590 c0 -38 4 -59 10 -55 6 3 10 28 10 55 0 27 -4 52 -10 55 -6
4 -10 -17 -10 -55z"/>
<path d="M5130 590 c0 -33 4 -60 10 -60 6 0 10 27 10 60 0 33 -4 60 -10 60 -6
0 -10 -27 -10 -60z"/>
<path d="M290 590 c0 -27 5 -50 10 -50 6 0 10 23 10 50 0 28 -4 50 -10 50 -5
0 -10 -22 -10 -50z"/>
<path d="M430 590 c0 -27 5 -50 10 -50 6 0 10 23 10 50 0 28 -4 50 -10 50 -5
0 -10 -22 -10 -50z"/>
<path d="M1190 590 c0 -27 5 -50 10 -50 6 0 10 23 10 50 0 28 -4 50 -10 50 -5
0 -10 -22 -10 -50z"/>
<path d="M5410 590 c0 -27 5 -50 10 -50 6 0 10 23 10 50 0 28 -4 50 -10 50 -5
0 -10 -22 -10 -50z"/>
<path d="M220 591 c0 -22 5 -43 10 -46 6 -4 10 12 10 39 0 25 -4 46 -10 46 -5
0 -10 -18 -10 -39z"/>
<path d="M1050 590 c0 -22 5 -40 10 -40 6 0 10 18 10 40 0 22 -4 40 -10 40 -5
0 -10 -18 -10 -40z"/>
<path d="M1677 623 c-11 -10 -8 -61 3 -68 6 -4 10 10 10 34 0 42 -2 46 -13 34z"/>
<path d="M4031 590 c0 -32 2 -40 9 -29 5 9 6 28 0 45 -8 27 -8 26 -9 -16z"/>
<path d="M4237 623 c-11 -10 -8 -61 3 -68 6 -4 10 10 10 34 0 42 -2 46 -13 34z"/>
<path d="M5270 585 c0 -25 5 -45 10 -45 6 0 10 20 10 45 0 25 -4 45 -10 45 -5
0 -10 -20 -10 -45z"/>
<path d="M5480 591 c0 -23 5 -41 10 -41 6 0 10 15 10 34 0 19 -4 38 -10 41 -6
4 -10 -10 -10 -34z"/>
<path d="M150 590 c0 -16 5 -30 10 -30 6 0 10 14 10 30 0 17 -4 30 -10 30 -5
0 -10 -13 -10 -30z"/>
<path d="M500 590 c0 -16 5 -30 10 -30 6 0 10 14 10 30 0 17 -4 30 -10 30 -5
0 -10 -13 -10 -30z"/>
<path d="M80 590 c0 -11 5 -20 10 -20 6 0 10 9 10 20 0 11 -4 20 -10 20 -5 0
-10 -9 -10 -20z"/>
<path d="M1120 590 c0 -11 5 -20 10 -20 6 0 10 9 10 20 0 11 -4 20 -10 20 -5
0 -10 -9 -10 -20z"/>
<path d="M4095 600 c-4 -6 -3 -16 3 -22 6 -6 12 -6 17 2 4 6 3 16 -3 22 -6 6
-12 6 -17 -2z"/>
<path d="M4164 599 c-3 -6 -1 -16 5 -22 8 -8 11 -5 11 11 0 24 -5 28 -16 11z"/>
<path d="M5200 590 c0 -11 5 -20 10 -20 6 0 10 9 10 20 0 11 -4 20 -10 20 -5
0 -10 -9 -10 -20z"/>
<path d="M5550 590 c0 -11 5 -20 10 -20 6 0 10 9 10 20 0 11 -4 20 -10 20 -5
0 -10 -9 -10 -20z"/>
</g>
</svg>
